<?xml version="1.0" standalone="no"?><!DOCTYPE svg PUBLIC "-//W3C//DTD SVG 1.1//EN" "http://www.w3.org/Graphics/SVG/1.1/DTD/svg11.dtd"><svg t="1583497272783" class="icon" viewBox="0 0 1024 1024" version="1.1" xmlns="http://www.w3.org/2000/svg" p-id="656" xmlns:xlink="http://www.w3.org/1999/xlink" width="100" height="100"><defs><style type="text/css"></style></defs><path d="M793.6 512C885 424.7 929.5 339.1 900 288c-16.9-29.2-55.4-43.1-108.1-43.1-39.5 0-87.1 8.3-139 23.5C622.9 145.4 571.1 64 512 64s-110.9 81.4-140.9 204.3c-51.9-15.2-99.6-23.5-139-23.5-52.6 0-91.2 13.9-108.1 43.1-29.5 51.1 15 136.7 106.4 224C139 599.3 94.5 684.9 124 736c16.9 29.2 55.4 43.1 108.1 43.1 39.5 0 87.1-8.3 139-23.5 30 123 81.8 204.4 140.9 204.4s110.9-81.4 140.9-204.3c51.9 15.2 99.6 23.5 139 23.5 52.6 0 91.2-13.9 108.1-43.1 29.5-51.2-15-136.8-106.4-224.1z m-1.7-211.1c40.2 0 56.5 9.9 59.5 15.1 4 6.9 3.6 41-49 104.9-14.7 17.8-32 35.8-50.9 53.7-23.2-19.4-48.3-38.6-75.4-57.3-2.7-32.8-6.7-64.1-11.9-93.8 47.7-14.4 91.7-22.6 127.7-22.6zM568 609c-18.6 10.7-37.3 20.6-56 30-18.7-9.4-37.4-19.3-56-30-18.8-10.9-36.5-22.4-54.1-33.9-1.1-20.3-1.9-41.1-1.9-63.1s0.8-42.8 1.9-63.1c17.6-11.5 35.3-23 54.1-33.9 18.6-10.7 37.3-20.6 56-30 18.7 9.4 37.4 19.3 56 30 18.8 10.9 36.5 22.4 54.1 33.9 1.1 20.3 1.9 41.1 1.9 63.1s-0.8 42.8-1.9 63.1c-17.6 11.5-35.3 23-54.1 33.9z m48.1 36.4c-1.6 12.8-3.4 25.2-5.3 37.1-11.5-4.3-23.1-9-34.9-14 6.7-3.7 13.4-7.1 20.2-11 6.8-4 13.3-8.1 20-12.1z m-167.9 23.1c-11.8 5-23.4 9.6-34.9 14-2-11.9-3.8-24.3-5.3-37.1 6.7 4 13.2 8.1 20.1 12.1 6.6 3.9 13.3 7.3 20.1 11zM344.4 534.6c-9.9-7.5-20-14.9-29.3-22.6 9.3-7.6 19.4-15 29.3-22.6-0.1 7.5-0.4 14.9-0.4 22.6s0.3 15 0.4 22.6z m63.5-156c1.6-12.8 3.4-25.2 5.3-37.1 11.5 4.3 23.1 9 34.9 14-6.7 3.7-13.4 7.1-20.2 11-6.8 4-13.3 8.1-20 12.1z m167.9-23.1c11.8-5 23.4-9.6 34.9-14 2 11.9 3.7 24.3 5.3 37.1-6.7-4-13.2-8.1-20.1-12.1-6.6-3.9-13.3-7.3-20.1-11z m103.8 133.9c9.9 7.5 20 14.9 29.3 22.6-9.3 7.6-19.4 15-29.3 22.6 0.1-7.5 0.4-14.9 0.4-22.6s-0.3-15-0.4-22.6zM512 120c20.9 0 61.3 57.3 87.4 165.9-28.4 10.4-57.6 22.6-87.4 36.8-29.8-14.1-59-26.4-87.4-36.8C450.7 177.3 491.1 120 512 120zM221.5 420.9c-52.6-63.9-53-98-49-104.9 3-5.2 19.4-15.1 59.6-15.1 36 0 80 8.2 127.7 22.5-5.2 29.7-9.3 61-11.9 93.9-27.1 18.7-52.3 38-75.4 57.3-19-17.9-36.3-35.9-51-53.7z m10.6 302.2c-40.2 0-56.5-9.9-59.6-15.1-4-6.9-3.6-41 49-104.9 14.7-17.8 32-35.8 50.9-53.7 23.2 19.4 48.3 38.6 75.4 57.3 2.7 32.8 6.7 64.1 11.9 93.9-47.6 14.3-91.6 22.5-127.6 22.5zM512 904c-20.9 0-61.3-57.3-87.4-165.9 28.4-10.4 57.6-22.6 87.4-36.8 29.8 14.1 59 26.4 87.4 36.8C573.3 846.7 532.9 904 512 904z m339.5-196c-3 5.2-19.4 15.1-59.6 15.1-36 0-80-8.2-127.7-22.5 5.2-29.7 9.3-61 11.9-93.9 27.1-18.7 52.3-38 75.4-57.3 18.9 17.9 36.3 35.8 50.9 53.7 52.6 63.9 53.1 98 49.1 104.9z" p-id="657" fill="#13227a"></path><path d="M512 512m-28 0a28 28 0 1 0 56 0 28 28 0 1 0-56 0Z" p-id="658" fill="#13227a"></path></svg>